<svg version="1.1" id="Layer_1" xmlns="http://www.w3.org/2000/svg" xmlns:xlink="http://www.w3.org/1999/xlink" x="0px" y="0px"
	 width="100%" viewBox="0 0 496 496" enable-background="new 0 0 496 496" xml:space="preserve">
<path fill="#000000" opacity="1.000000" stroke="none" 
	d="
M198.907898,185.013046 
	C202.237228,185.092865 203.497147,186.531525 203.416550,189.447159 
	C203.301605,193.605301 202.957016,197.823486 203.482101,201.917023 
	C204.223175,207.694244 201.340164,210.325317 196.549622,212.378647 
	C178.321838,220.191498 157.979385,211.795654 151.429398,193.579697 
	C144.743484,174.985657 154.685699,155.584305 173.883224,150.475571 
	C182.326370,148.228745 190.716721,149.087311 198.467667,153.582245 
	C200.994583,155.047653 203.456238,156.399612 201.332169,160.145432 
	C197.957321,166.097061 196.329742,167.076050 191.981247,164.928085 
	C179.105667,158.568115 166.050949,164.483582 162.753235,178.172104 
	C159.499359,191.678650 172.281143,205.177490 185.850113,202.528976 
	C189.684708,201.780487 192.345261,199.981567 191.707443,195.438354 
	C191.547058,194.295914 191.680939,193.111374 191.688919,191.946228 
	C191.732620,185.559906 191.901581,185.387695 198.907898,185.013046 
z"/>
<path fill="#000000" opacity="1.000000" stroke="none" 
	d="
M303.303070,321.267761 
	C301.019226,314.684357 300.931915,308.508698 303.583038,302.408325 
	C308.315796,291.518005 318.475342,287.848602 331.999390,292.816681 
	C331.999390,287.123718 331.949310,281.744507 332.012146,276.366608 
	C332.089508,269.749023 333.627167,268.465790 340.105804,269.025757 
	C343.291046,269.301056 345.092926,270.741577 345.095734,274.001770 
	C345.111572,292.321136 345.109894,310.640503 345.068329,328.959778 
	C345.064026,330.851471 344.625671,332.987823 342.345032,333.095459 
	C339.050690,333.250946 335.156403,334.823822 333.260406,330.331116 
	C322.530701,338.234100 308.064636,333.734406 303.303070,321.267761 
M330.433777,319.876282 
	C331.149139,318.581451 332.212402,317.362610 332.514740,315.977600 
	C333.426392,311.801422 333.507202,307.577148 330.107178,304.349915 
	C327.749451,302.112000 324.871582,300.928833 321.442535,301.830841 
	C317.248871,302.933990 314.906342,305.672546 314.372833,309.864746 
	C313.806091,314.317871 314.091003,318.732605 318.385895,321.374817 
	C322.289032,323.776062 326.284760,323.499329 330.433777,319.876282 
z"/>
<path fill="#000000" opacity="1.000000" stroke="none" 
	d="
M309.897705,187.609650 
	C314.688904,173.019348 325.474548,167.917664 339.770416,174.001221 
	C339.770416,168.101074 339.744110,162.576584 339.777466,157.052444 
	C339.813995,151.009430 340.957275,149.962097 346.624512,149.992416 
	C350.738800,150.014420 352.525208,151.550995 352.474792,155.965820 
	C352.277008,173.285553 352.400848,190.608810 352.372314,207.930695 
	C352.362091,214.137283 347.840973,216.802155 342.659790,213.338989 
	C340.815125,212.105972 339.910889,211.957870 337.994446,212.970245 
	C325.585083,219.525452 310.705719,210.839737 309.717316,196.520462 
	C309.523163,193.707718 309.766327,190.864807 309.897705,187.609650 
M322.243042,196.400696 
	C324.362701,202.245743 327.607330,204.535095 332.935486,203.694397 
	C337.706329,202.941620 340.060638,199.752304 340.678375,195.200470 
	C341.483521,189.267487 339.072327,184.905716 334.206024,183.161575 
	C326.875336,180.534149 321.256287,186.340576 322.243042,196.400696 
z"/>
<path fill="#000000" opacity="1.000000" stroke="none" 
	d="
M173.017242,331.697693 
	C169.684296,334.430145 166.115692,333.198517 162.733582,333.128876 
	C160.370880,333.080200 160.021118,330.881317 160.018204,329.031952 
	C159.989151,310.551025 160.018478,292.070007 160.051651,273.589020 
	C160.057205,270.495850 161.769989,269.071198 164.770172,269.066376 
	C176.757721,269.047119 188.745300,269.015991 200.732803,269.032135 
	C206.281509,269.039612 205.093918,273.193085 205.354614,276.553223 
	C205.648865,280.345673 204.114426,282.139526 200.251434,282.104706 
	C192.925934,282.038635 185.596268,282.219116 178.274536,282.041534 
	C174.638947,281.953339 173.265015,283.210876 173.310730,286.946381 
	C173.466629,299.687866 172.406815,297.458038 183.897919,297.671387 
	C186.394638,297.717743 188.892975,297.669006 191.390488,297.681488 
	C197.661911,297.712830 200.465500,302.012177 197.989777,307.760559 
	C197.097748,309.831757 195.273224,310.027496 193.412979,310.042664 
	C188.251755,310.084778 183.086243,310.185181 177.929810,310.024872 
	C174.445297,309.916534 173.227173,311.356903 173.312698,314.771393 
	C173.450150,320.258514 173.239487,325.754364 173.017242,331.697693 
z"/>
<path fill="#000000" opacity="1.000000" stroke="none" 
	d="
M270.107361,212.117126 
	C261.213409,205.692902 257.700531,196.886978 260.096008,187.660950 
	C262.471039,178.513535 270.100647,171.942322 279.624237,170.841705 
	C288.346161,169.833725 297.835175,174.965958 301.971924,182.928696 
	C306.254639,191.172379 304.759308,201.798569 298.387817,208.398453 
	C291.077301,215.971024 280.801056,217.405243 270.107361,212.117126 
M291.299683,197.431778 
	C292.950409,188.186691 288.072052,181.553955 280.554413,182.822174 
	C275.855713,183.614822 272.395691,187.407944 271.862488,192.350815 
	C271.358521,197.023193 274.336975,201.697510 278.789093,203.221222 
	C283.418274,204.805542 287.450745,203.116364 291.299683,197.431778 
z"/>
<path fill="#000000" opacity="1.000000" stroke="none" 
	d="
M237.812668,294.030457 
	C248.878265,303.469360 250.338943,316.860840 241.671341,326.888275 
	C233.918610,335.857330 219.286102,336.906677 210.119370,329.150909 
	C201.704224,322.031067 199.669617,310.023621 205.300339,300.711029 
	C211.174896,290.995178 222.890915,287.237640 233.564850,291.694855 
	C234.936707,292.267670 236.200302,293.099731 237.812668,294.030457 
M224.521912,301.518585 
	C222.959229,302.036133 221.245697,302.299164 219.862228,303.119080 
	C215.758301,305.551270 213.887115,309.335419 214.610550,314.030823 
	C215.328247,318.688934 219.341965,322.318207 223.688278,322.653351 
	C228.588791,323.031219 232.119415,320.757538 233.969788,316.387817 
	C236.776413,309.759949 232.416061,302.298431 224.521912,301.518585 
z"/>
<path fill="#000000" opacity="1.000000" stroke="none" 
	d="
M293.232605,323.997101 
	C287.381226,332.290771 279.549500,335.657990 270.060150,333.980743 
	C260.972198,332.374481 254.745056,326.872131 252.407730,317.741699 
	C250.142090,308.891357 252.558929,301.108582 259.482971,295.266876 
	C266.518494,289.331116 274.677734,287.935669 283.256470,291.850159 
	C291.523071,295.622223 296.124146,301.996460 296.428223,311.300293 
	C296.573608,315.748413 295.846680,319.894226 293.232605,323.997101 
M272.232483,301.947662 
	C270.884552,302.565948 269.394470,302.987122 268.214508,303.838287 
	C264.167053,306.757843 263.511780,310.984222 264.586700,315.430756 
	C265.570496,319.500397 268.485870,321.986511 272.646393,322.580658 
	C276.999756,323.202362 280.525085,321.507050 282.816040,317.764099 
	C287.438080,310.212585 282.601166,302.443512 272.232483,301.947662 
z"/>
<path fill="#000000" opacity="1.000000" stroke="none" 
	d="
M225.405136,171.951996 
	C236.492371,169.333328 245.780273,172.530243 251.325607,180.615845 
	C256.501709,188.163086 256.522339,197.922073 251.378098,205.454819 
	C246.087143,213.202393 236.166534,217.055466 227.351624,214.786484 
	C217.548630,212.263184 211.292282,204.914764 210.141571,194.572296 
	C209.217789,186.269699 214.490250,177.251602 222.729584,173.069168 
	C223.469070,172.693787 224.252487,172.404922 225.405136,171.951996 
M224.117004,187.713516 
	C220.817322,195.577911 224.158020,202.772827 231.506180,203.627670 
	C236.200180,204.173752 240.944809,201.142487 242.369400,196.687332 
	C243.846207,192.069000 242.074509,186.952438 238.120041,184.415192 
	C233.457703,181.423737 229.167313,182.262787 224.117004,187.713516 
z"/>
</svg>